<svg xmlns="http://www.w3.org/2000/svg" width="512" height="512" viewBox="0 0 512 512" role="img" aria-label="RVA Miles">
  <defs>
    <linearGradient id="brand" gradientUnits="userSpaceOnUse" x1="0" y1="0" x2="512" y2="512">
      <stop offset="0" stop-color="#7C3AED"/>
      <stop offset="1" stop-color="#D946EF"/>
    </linearGradient>
    <radialGradient id="sheen" cx="0.18" cy="0.1" r="0.8">
      <stop offset="0" stop-color="#FFFFFF" stop-opacity="0.13"/>
      <stop offset="0.6" stop-color="#FFFFFF" stop-opacity="0.02"/>
      <stop offset="1" stop-color="#FFFFFF" stop-opacity="0"/>
    </radialGradient>
    <radialGradient id="vignette" cx="0.86" cy="0.92" r="0.85">
      <stop offset="0" stop-color="#2A0A45" stop-opacity="0.20"/>
      <stop offset="1" stop-color="#2A0A45" stop-opacity="0"/>
    </radialGradient>
    <filter id="lift" x="-25%" y="-25%" width="150%" height="150%">
      <feDropShadow dx="0" dy="8" stdDeviation="12" flood-color="#2A0A45" flood-opacity="0.30"/>
    </filter>
  </defs>

  <rect x="0" y="0" width="512" height="512" rx="112" fill="url(#brand)"/>
  <rect x="0" y="0" width="512" height="512" rx="112" fill="url(#vignette)"/>
  <rect x="0" y="0" width="512" height="512" rx="112" fill="url(#sheen)"/>

  <g transform="translate(256 256) scale(0.86) translate(-256 -256)" filter="url(#lift)">
    <path d="M172 392 C172 324 238 330 250 278 C262 226 306 216 330 206"
          fill="none" stroke="#FFFFFF" stroke-width="42"
          stroke-linecap="round" stroke-linejoin="round"/>
    <path d="M172 392 C172 324 238 330 250 278 C262 226 306 216 330 206"
          fill="none" stroke="url(#brand)" stroke-width="8"
          stroke-dasharray="15 25" stroke-dashoffset="-46" opacity="0.9"/>
    <circle cx="172" cy="392" r="30" fill="#FFFFFF"/>
    <circle cx="172" cy="392" r="11.5" fill="url(#brand)"/>
    <path d="M12 2C8.13 2 5 5.13 5 9c0 5.25 7 13 7 13s7-7.75 7-13c0-3.87-3.13-7-7-7zm0 9.5a2.5 2.5 0 010-5 2.5 2.5 0 010 5z"
          transform="translate(255.6 59.6) scale(6.2)" fill="#FFFFFF"/>
  </g>
</svg>